<svg width="1300" height="755" viewBox="0 0 4145 1755" fill="none" xmlns="http://www.w3.org/2000/svg">
<path fill-rule="evenodd" clip-rule="evenodd" d="M449.5 1566L0.5 1754L3622.5 1701.12V1390L3386 480L2876.5 1L2809.5 352.5L2706.5 510.5L2664 820L2452 1087L1887.5 298L1560 856.5L1299 589.5L1135 935L850 1026L716.5 1323.5L449.5 1566Z" fill="#D9D9D9"/>
<path fill-rule="evenodd" clip-rule="evenodd" d="M449.5 1566L0.5 1754L3622.5 1701.12V1390L3386 480L2876.5 1L2809.5 352.5L2706.5 510.5L2664 820L2452 1087L1887.5 298L1560 856.5L1299 589.5L1135 935L850 1026L716.5 1323.5L449.5 1566Z" fill="black" fill-opacity="0.2"/>
<path fill-rule="evenodd" clip-rule="evenodd" d="M449.5 1566L0.5 1754L3622.5 1701.12V1390L3386 480L2876.5 1L2809.5 352.5L2706.5 510.5L2664 820L2452 1087L1887.5 298L1560 856.5L1299 589.5L1135 935L850 1026L716.5 1323.5L449.5 1566Z" fill="black" fill-opacity="0.2"/>
<path d="M4144.5 1693.5L3622.5 1701.12M1887.5 298L1560 856.5L1299 589.5L1135 935L850 1026L716.5 1323.5L449.5 1566L0.5 1754L3622.5 1701.12M1887.5 298L2452 1087L2664 820L2706.5 510.5L2809.5 352.5L2876.5 1M1887.5 298C2397.07 728.887 2612.65 658.777 2876.5 1M2876.5 1L3386 480L3622.5 1390V1701.12" stroke="black"/>
<path d="M4144.5 1693.5L3622.5 1701.12M1887.5 298L1560 856.5L1299 589.5L1135 935L850 1026L716.5 1323.5L449.5 1566L0.5 1754L3622.5 1701.12M1887.5 298L2452 1087L2664 820L2706.5 510.5L2809.5 352.5L2876.5 1M1887.5 298C2397.07 728.887 2612.65 658.777 2876.5 1M2876.5 1L3386 480L3622.5 1390V1701.12" stroke="black" stroke-opacity="0.2"/>
<path d="M728.5 1317.5L1220 1730L462 1548" stroke="black"/>
<path d="M728.5 1317.5L1220 1730L462 1548" stroke="black" stroke-opacity="0.2"/>
<path d="M1554 862.5L1226 1718L1112.05 1499.5L1301.46 1226.5L1554 862.5Z" fill="#D9D9D9"/>
<path d="M1554 862.5L1226 1718L1112.05 1499.5L1301.46 1226.5L1554 862.5Z" fill="black" fill-opacity="0.2"/>
<path d="M1554 862.5L1226 1718L1112.05 1499.5L1301.46 1226.5L1554 862.5Z" fill="black" fill-opacity="0.2"/>
<path d="M1554 862.5L1226 1718L1112.05 1499.5L1301.46 1226.5L1554 862.5Z" fill="black" fill-opacity="0.2"/>
<path d="M1554 862.5L1226 1718L1112.05 1499.5L1301.46 1226.5L1554 862.5Z" fill="black" fill-opacity="0.2"/>
<path d="M862 1020L1112.05 1499.5M1112.05 1499.5L1226 1718L1554 862.5L1301.46 1226.5M1112.05 1499.5L1301.46 1226.5M1153.5 941L1301.46 1226.5M2445.5 1087L1948 1718L1893.5 316.5M2445.5 1087L2822 1173.73M2445.5 1087L3234.5 1687.5M2718.5 492L3004 814M3004 814L2822 359M3004 814L2894.5 1M3004 814L3604.5 1354L2822 1173.73M2664 814L2822 1173.73M3380 492L3149.5 941" stroke="black"/>
<path d="M862 1020L1112.05 1499.5M1112.05 1499.5L1226 1718L1554 862.5L1301.46 1226.5M1112.05 1499.5L1301.46 1226.5M1153.5 941L1301.46 1226.5M2445.5 1087L1948 1718L1893.5 316.5M2445.5 1087L2822 1173.73M2445.5 1087L3234.5 1687.5M2718.5 492L3004 814M3004 814L2822 359M3004 814L2894.5 1M3004 814L3604.5 1354L2822 1173.73M2664 814L2822 1173.73M3380 492L3149.5 941" stroke="black" stroke-opacity="0.2"/>
<path d="M1402 1293L1905.5 807.5V595.5L2148.5 662L1936 1445L1402 1293Z" fill="#D9D9D9"/>
<path d="M1402 1293L1905.5 807.5V595.5L2148.5 662L1936 1445L1402 1293Z" fill="black" fill-opacity="0.2"/>
<path d="M1402 1293L1905.5 807.5V595.5L2148.5 662L1936 1445L1402 1293Z" fill="black" fill-opacity="0.2"/>
<path d="M1402 1293L1905.5 807.5V595.5L2148.5 662L1936 1445L1402 1293Z" fill="black" fill-opacity="0.2"/>
<path d="M1402 1293L1905.5 807.5V595.5L2148.5 662L1936 1445L1402 1293Z" fill="black" fill-opacity="0.2"/>
<path d="M1905.5 807.5L1402 1293L1936 1445M1905.5 807.5V595.5L2148.5 662L1936 1445M1905.5 807.5L1936 1445" stroke="black"/>
<path d="M1905.5 807.5L1402 1293L1936 1445M1905.5 807.5V595.5L2148.5 662L1936 1445M1905.5 807.5L1936 1445" stroke="black" stroke-opacity="0.2"/>
<path d="M2433.5 1093L2045.5 1062.5L1614.5 1093L2136.5 1475L2433.5 1093Z" fill="#D9D9D9"/>
<path d="M2433.5 1093L2045.5 1062.5L1614.5 1093L2136.5 1475L2433.5 1093Z" fill="black" fill-opacity="0.2"/>
<path d="M2433.5 1093L2045.5 1062.5L1614.5 1093L2136.5 1475L2433.5 1093Z" fill="black" fill-opacity="0.2"/>
<path d="M2433.5 1093L2045.5 1062.5L1614.5 1093L2136.5 1475L2433.5 1093Z" fill="black" fill-opacity="0.2"/>
<path d="M2433.5 1093L2045.5 1062.5L1614.5 1093L2136.5 1475L2433.5 1093Z" fill="black" fill-opacity="0.2"/>
<path d="M2433.5 1093L2045.5 1062.5L1614.5 1093L2136.5 1475L2433.5 1093Z" fill="black" fill-opacity="0.2"/>
<path d="M2816 334.5L2985.5 777.5L2712.5 492L2816 334.5Z" fill="#D9D9D9"/>
<path d="M2816 334.5L2985.5 777.5L2712.5 492L2816 334.5Z" fill="black" fill-opacity="0.2"/>
<path d="M2816 334.5L2985.5 777.5L2712.5 492L2816 334.5Z" fill="black" fill-opacity="0.2"/>
<path d="M2816 334.5L2985.5 777.5L2712.5 492L2816 334.5Z" fill="black" fill-opacity="0.2"/>
<path d="M2816 334.5L2985.5 777.5L2712.5 492L2816 334.5Z" fill="black" fill-opacity="0.2"/>
<path d="M2816 334.5L2985.5 777.5L2712.5 492L2816 334.5Z" fill="black" fill-opacity="0.2"/>
<path d="M3283 1062.5L2664 820L2761 1026L3283 1062.5Z" fill="#D9D9D9"/>
<path d="M3283 1062.5L2664 820L2761 1026L3283 1062.5Z" fill="black" fill-opacity="0.2"/>
<path d="M3283 1062.5L2664 820L2761 1026L3283 1062.5Z" fill="black" fill-opacity="0.2"/>
<path d="M3283 1062.5L2664 820L2761 1026L3283 1062.5Z" fill="black" fill-opacity="0.2"/>
<path d="M3283 1062.5L2664 820L2761 1026L3283 1062.5Z" fill="black" fill-opacity="0.2"/>
<path d="M3283 1062.5L2664 820L2761 1026L3283 1062.5Z" fill="black" fill-opacity="0.2"/>
<path d="M1244.5 1093L868.5 1026L1080.5 1384L1244.5 1093Z" fill="#D9D9D9"/>
<path d="M1244.5 1093L868.5 1026L1080.5 1384L1244.5 1093Z" fill="black" fill-opacity="0.2"/>
<path d="M1244.5 1093L868.5 1026L1080.5 1384L1244.5 1093Z" fill="black" fill-opacity="0.2"/>
<path d="M1244.5 1093L868.5 1026L1080.5 1384L1244.5 1093Z" fill="black" fill-opacity="0.2"/>
<path d="M1244.5 1093L868.5 1026L1080.5 1384L1244.5 1093Z" fill="black" fill-opacity="0.2"/>
<path d="M1244.5 1093L868.5 1026L1080.5 1384L1244.5 1093Z" fill="black" fill-opacity="0.2"/>
<path d="M1311 1178V607.5L1141.5 929L1311 1178Z" fill="#D9D9D9"/>
<path d="M1311 1178V607.5L1141.5 929L1311 1178Z" fill="black" fill-opacity="0.2"/>
<path d="M1311 1178V607.5L1141.5 929L1311 1178Z" fill="black" fill-opacity="0.2"/>
<path d="M1311 1178V607.5L1141.5 929L1311 1178Z" fill="black" fill-opacity="0.2"/>
<path d="M1311 1178V607.5L1141.5 929L1311 1178Z" fill="black" fill-opacity="0.2"/>
<path d="M1311 1178V607.5L1141.5 929L1311 1178Z" fill="black" fill-opacity="0.2"/>
<path d="M1924 820L1887.5 334.5L1554 880.5L1924 820Z" fill="#D9D9D9"/>
<path d="M1924 820L1887.5 334.5L1554 880.5L1924 820Z" fill="black" fill-opacity="0.2"/>
<path d="M1924 820L1887.5 334.5L1554 880.5L1924 820Z" fill="black" fill-opacity="0.2"/>
<path d="M1924 820L1887.5 334.5L1554 880.5L1924 820Z" fill="black" fill-opacity="0.2"/>
<path d="M1924 820L1887.5 334.5L1554 880.5L1924 820Z" fill="black" fill-opacity="0.2"/>
<path d="M1924 820L1887.5 334.5L1554 880.5L1924 820Z" fill="black" fill-opacity="0.2"/>
<path d="M2433.5 1093L2045.5 1062.5L1614.5 1093L2136.5 1475L2433.5 1093Z" stroke="black"/>
<path d="M2433.5 1093L2045.5 1062.5L1614.5 1093L2136.5 1475L2433.5 1093Z" stroke="black" stroke-opacity="0.2"/>
<path d="M2816 334.5L2985.5 777.5L2712.5 492L2816 334.5Z" stroke="black"/>
<path d="M2816 334.5L2985.5 777.5L2712.5 492L2816 334.5Z" stroke="black" stroke-opacity="0.2"/>
<path d="M3283 1062.5L2664 820L2761 1026L3283 1062.5Z" stroke="black"/>
<path d="M3283 1062.5L2664 820L2761 1026L3283 1062.5Z" stroke="black" stroke-opacity="0.2"/>
<path d="M1244.5 1093L868.5 1026L1080.5 1384L1244.5 1093Z" stroke="black"/>
<path d="M1244.5 1093L868.5 1026L1080.5 1384L1244.5 1093Z" stroke="black" stroke-opacity="0.2"/>
<path d="M1311 1178V607.5L1141.5 929L1311 1178Z" stroke="black"/>
<path d="M1311 1178V607.5L1141.5 929L1311 1178Z" stroke="black" stroke-opacity="0.2"/>
<path d="M1924 820L1887.5 334.5L1554 880.5L1924 820Z" stroke="black"/>
<path d="M1924 820L1887.5 334.5L1554 880.5L1924 820Z" stroke="black" stroke-opacity="0.2"/>
</svg>
